<?xml version="1.0" encoding="iso-8859-1"?>
<!-- Generator: Adobe Illustrator 23.0.1, SVG Export Plug-In . SVG Version: 6.00 Build 0)  -->
<svg version="1.2" baseProfile="tiny" id="Layer_1" xmlns="http://www.w3.org/2000/svg" xmlns:xlink="http://www.w3.org/1999/xlink"
	 x="0px" y="0px" viewBox="0 0 668.203 176.724" xml:space="preserve">
<path fill="#69BE29" d="M48.12,0.387H2.578C1.154,0.387,0,1.541,0,2.965v117.328c0,1.424,1.154,2.578,2.578,2.578H48.12
	c42.869,0,61.766-31.322,61.241-62.292C108.838,30.309,90.115,0.387,48.12,0.387z M48.94,95.902H29.485
	c-1.424,0-2.578-1.154-2.578-2.578v-63.39c0-1.424,1.154-2.578,2.578-2.578H48.94c23.257,0,33.05,16.68,33.509,33.357
	C82.905,78.153,73.265,95.902,48.94,95.902z"/>
<path fill="#69BE29" d="M142.153,28.301h-30.052c-1.424,0-2.578-1.154-2.578-2.578V2.606c0-1.424,1.154-2.578,2.578-2.578h95.631
	c1.424,0,2.578,1.154,2.578,2.578v23.117c0,1.424-1.154,2.578-2.578,2.578H177.68c-1.424,0-2.578,1.154-2.578,2.578v89.055
	c0,1.424-1.154,2.578-2.578,2.578H147.31c-1.424,0-2.578-1.154-2.578-2.578V30.879C144.732,29.455,143.577,28.301,142.153,28.301z"
	/>
<path fill="#FFFFFF" d="M270.556,0.41c-36.907,0-59.941,27.736-59.941,61.451c0,33.952,22.565,61.448,60.178,61.448
	c37.609,0,60.411-27.495,60.411-61.448C331.203,28.146,307.463,0.41,270.556,0.41z M270.413,98.264
	c-21.37,0-32.175-16.809-32.175-34.814c0-17.768,11.046-35.056,32.175-35.056c19.686,0,32.171,17.288,32.171,35.056
	C302.584,81.455,291.78,98.264,270.413,98.264z"/>
<path fill="#FFFFFF" d="M430.684,122.512c-0.517,0-0.936-0.419-0.936-0.936V59.615c0-26.32-20.709-43.537-59.211-23.33
	c-0.312,0.164-0.518,0.495-0.518,0.847l0,84.444c0,0.517-0.419,0.936-0.936,0.936h-27.627c-0.517,0-0.936-0.419-0.936-0.936V1.015
	c0-0.517,0.419-0.936,0.936-0.936L367.786,0c0.474,0,0.873,0.354,0.929,0.825l0.111,15.75c0.091,0.762,1.011,1.068,1.569,0.541
	C382.139,6.028,393.983,0.373,408.54,0.373c28.279,0,50.952,21.212,50.952,58.997v62.207c0,0.517-0.419,0.936-0.936,0.936H430.684z"
	/>
<path fill="#FFFFFF" d="M640.463,111.163c0-4.172,1.465-8.003,3.897-11.025h-1.79c-16.485,0-99.322,0-109.371,0
	c-18.632,0-30.468-9.897-34.012-22.591c-0.591-2.116,1.078-4.206,3.275-4.206h85.189c1.759,0,3.25-1.369,3.372-3.123
	c3.232-46.664-21.28-70.108-60.039-70.108c-38.417,0-62.907,25.932-62.907,61.944c0,37.937,24.78,60.618,65.595,60.618
	c9.779,0,75.985,0.716,111.667,0.625C642.327,120.133,640.463,115.866,640.463,111.163z M500.498,44.397
	c5.458-12.238,17.305-18.355,31.446-18.355c15.199,0,26.471,6.281,29.908,18.845c0.578,2.114-1.087,4.202-3.279,4.202h-54.959
	C501.206,49.089,499.517,46.596,500.498,44.397z"/>
<circle fill="#69BE29" cx="657.703" cy="111.475" r="10.5"/>
<g>
	<path fill="#FFFFFF" d="M222.678,170.789c0-0.461-0.195-0.893-0.583-1.293c-0.389-0.4-1.226-0.849-2.512-1.347
		c-1.287-0.497-2.136-0.825-2.549-0.983c-0.413-0.157-0.874-0.395-1.384-0.71s-0.947-0.655-1.311-1.02
		c-0.364-0.364-0.698-0.85-1.001-1.456c-0.304-0.606-0.455-1.359-0.455-2.258c0-0.582,0.109-1.207,0.328-1.875
		c0.219-0.667,0.606-1.305,1.165-1.911c0.558-0.606,1.323-1.135,2.294-1.584c0.971-0.449,2.148-0.674,3.532-0.674
		c1.505,0,2.846,0.236,4.023,0.71c1.177,0.474,2.105,1.099,2.785,1.875l-2.876,2.913c-0.461-0.51-1.05-0.94-1.766-1.293
		c-0.716-0.352-1.475-0.527-2.275-0.527c-0.874,0-1.554,0.2-2.039,0.601c-0.486,0.4-0.729,0.904-0.729,1.511
		c0,0.438,0.188,0.868,0.564,1.293c0.376,0.425,1.444,0.959,3.204,1.602c1.76,0.644,3.01,1.232,3.75,1.767
		c0.74,0.534,1.311,1.152,1.711,1.856c0.401,0.704,0.601,1.554,0.601,2.549c0,1.116-0.322,2.148-0.965,3.095
		c-0.644,0.946-1.529,1.693-2.658,2.239c-1.128,0.546-2.494,0.819-4.096,0.819c-0.898,0-1.875-0.109-2.931-0.328
		c-1.056-0.218-2.015-0.569-2.876-1.056c-0.862-0.485-1.547-0.983-2.057-1.493l2.694-3.167c0.583,0.631,1.353,1.189,2.312,1.675
		c0.958,0.485,1.984,0.728,3.077,0.728c0.995,0,1.748-0.212,2.257-0.637S222.678,171.444,222.678,170.789z"/>
	<path fill="#FFFFFF" d="M246.598,158.518c0.364-0.582,0.886-1.116,1.565-1.602c0.679-0.485,1.414-0.825,2.203-1.02
		c0.788-0.194,1.523-0.292,2.203-0.292c2.015,0,3.556,0.564,4.624,1.693c1.068,1.129,1.602,2.81,1.602,5.043v13.981h-4.479v-13.181
		c0-1.237-0.286-2.166-0.855-2.785c-0.571-0.619-1.329-0.929-2.276-0.929c-0.85,0-1.633,0.262-2.348,0.783
		c-0.716,0.522-1.208,1.159-1.475,1.911v14.2h-4.515v-12.816c0-1.335-0.279-2.349-0.837-3.04c-0.559-0.692-1.372-1.038-2.439-1.038
		c-0.85,0-1.614,0.279-2.294,0.838s-1.141,1.226-1.383,2.002v14.055h-4.479v-20.28h3.604l0.801,2.002h0.146
		c0.51-0.703,1.238-1.286,2.185-1.747s1.99-0.692,3.131-0.692c2.573,0,4.296,0.972,5.17,2.913H246.598z"/>
	<path fill="#FFFFFF" d="M270.52,155.715c2.5,0,4.399,0.517,5.698,1.548c1.298,1.032,1.948,2.676,1.948,4.934v8.52
		c0,1.457,0.534,2.185,1.602,2.185h0.546v3.132c-0.559,0.34-1.25,0.51-2.076,0.51c-0.922,0-1.687-0.207-2.293-0.619
		c-0.607-0.412-1.069-0.971-1.384-1.675h-0.146c-1.287,1.626-3.12,2.439-5.498,2.439c-0.923,0-1.845-0.188-2.767-0.564
		c-0.923-0.376-1.681-1.025-2.276-1.948c-0.595-0.922-0.892-1.93-0.892-3.021c0-2.233,0.977-3.908,2.931-5.024
		c1.954-1.116,4.63-1.614,8.028-1.493v-1.82c0-1.238-0.297-2.118-0.892-2.64c-0.595-0.522-1.438-0.783-2.53-0.783
		c-0.51,0-1.032,0.085-1.565,0.255c-0.535,0.17-1.001,0.443-1.402,0.819c-0.401,0.377-0.71,0.795-0.929,1.256l-3.204-2.403
		C265.167,156.917,267.534,155.715,270.52,155.715z M273.942,171.263v-3.496c-2.063-0.121-3.671,0.073-4.824,0.583
		c-1.153,0.51-1.729,1.311-1.729,2.403c0,0.704,0.242,1.286,0.728,1.747c0.485,0.462,1.141,0.692,1.966,0.692
		c0.801,0,1.547-0.183,2.239-0.547S273.554,171.821,273.942,171.263z"/>
	<path fill="#FFFFFF" d="M295.57,155.824v4.479c-0.729-0.146-1.493-0.219-2.294-0.219c-0.923,0-1.827,0.177-2.712,0.528
		c-0.887,0.353-1.597,0.844-2.13,1.475v14.236h-4.442v-20.28h3.459l0.947,2.694h0.146c0.437-0.922,1.11-1.669,2.021-2.239
		c0.91-0.57,1.972-0.855,3.186-0.855C294.477,155.642,295.084,155.703,295.57,155.824z"/>
	<path fill="#FFFFFF" d="M305.072,176.505c-1.797,0-3.192-0.503-4.188-1.511c-0.996-1.007-1.493-2.591-1.493-4.751v-10.741h-2.767
		v-2.804l2.767-0.91l1.493-4.952h2.913v5.207h5.279v3.459h-5.279v10.741c0,0.85,0.218,1.486,0.655,1.911s1.031,0.637,1.784,0.637
		c0.534,0,1.062-0.078,1.583-0.236c0.522-0.157,0.953-0.357,1.293-0.601l1.201,3.423
		C309.15,176.129,307.402,176.505,305.072,176.505z"/>
	<path fill="#FFFFFF" d="M312.318,173.519c0-0.874,0.297-1.614,0.892-2.221c0.594-0.606,1.316-0.91,2.167-0.91
		c0.412,0,0.861,0.104,1.347,0.31c0.485,0.206,0.897,0.57,1.238,1.092c0.339,0.522,0.51,1.099,0.51,1.729
		c0,0.825-0.304,1.535-0.91,2.13c-0.607,0.596-1.335,0.893-2.185,0.893c-0.85,0-1.572-0.297-2.167-0.893
		C312.615,175.055,312.318,174.345,312.318,173.519z"/>
	<path fill="#FFFFFF" d="M346.541,159.247c0.293-0.631,0.76-1.202,1.402-1.711c0.643-0.51,1.359-0.874,2.148-1.093
		s1.535-0.328,2.238-0.328c1.967,0,3.479,0.56,4.533,1.675c1.057,1.117,1.584,2.744,1.584,4.88v13.653h-2.803v-13.071
		c0-1.48-0.346-2.621-1.037-3.423c-0.693-0.801-1.645-1.201-2.859-1.201c-0.85,0-1.619,0.2-2.312,0.601
		c-0.691,0.4-1.207,0.855-1.547,1.365s-0.57,0.96-0.691,1.348v14.382h-2.84v-12.853c0-0.729-0.109-1.48-0.328-2.258
		c-0.219-0.776-0.643-1.401-1.273-1.875c-0.633-0.474-1.408-0.71-2.331-0.71c-0.559,0-1.159,0.128-1.802,0.383
		c-0.644,0.254-1.214,0.68-1.711,1.273c-0.498,0.596-0.819,1.22-0.965,1.876v14.163h-2.84v-19.807h2.185l0.583,2.111h0.146
		c0.533-0.825,1.268-1.45,2.203-1.875c0.934-0.425,1.912-0.638,2.93-0.638c0.68,0,1.379,0.098,2.094,0.292
		c0.717,0.194,1.348,0.546,1.895,1.056c0.545,0.51,0.965,1.104,1.256,1.784H346.541z"/>
	<path fill="#FFFFFF" d="M371.41,176.651c-5.389,0-8.083-3.398-8.083-10.195c0-2.379,0.328-4.314,0.983-5.808
		c0.655-1.492,1.584-2.615,2.785-3.367c1.202-0.753,2.713-1.129,4.533-1.129c1.093,0,2.142,0.158,3.149,0.473
		c1.007,0.316,1.881,0.868,2.622,1.657c0.739,0.789,1.316,1.833,1.729,3.131c0.412,1.299,0.618,2.919,0.618,4.861
		c0,1.554-0.158,2.961-0.473,4.224c-0.316,1.262-0.808,2.354-1.475,3.276c-0.668,0.923-1.536,1.633-2.604,2.13
		C374.128,176.401,372.867,176.651,371.41,176.651z M366.24,166.237c0,2.671,0.431,4.661,1.293,5.972
		c0.861,1.311,2.227,1.966,4.096,1.966s3.204-0.619,4.005-1.856c0.802-1.238,1.202-3.18,1.202-5.826c0-2.67-0.432-4.654-1.293-5.953
		c-0.861-1.298-2.239-1.947-4.133-1.947c-1.845,0-3.167,0.619-3.969,1.856C366.64,161.686,366.24,163.616,366.24,166.237z"/>
	<path fill="#FFFFFF" d="M384.737,175.632v-26.943h2.803v9.175h0.146c0.606-0.485,1.353-0.861,2.239-1.129
		c0.886-0.267,1.741-0.4,2.566-0.4c1.043,0,2.026,0.183,2.949,0.546c0.922,0.364,1.724,0.929,2.403,1.693
		c0.679,0.765,1.213,1.754,1.602,2.968s0.583,2.634,0.583,4.26c0,1.602-0.2,3.076-0.601,4.424c-0.401,1.347-1.008,2.5-1.821,3.459
		s-1.838,1.699-3.076,2.221s-2.646,0.783-4.224,0.783C387.952,176.687,386.095,176.335,384.737,175.632z M390.743,174.212
		c1.967,0,3.532-0.686,4.697-2.058c1.165-1.371,1.748-3.355,1.748-5.953c0-1.698-0.225-3.089-0.674-4.169s-1.074-1.887-1.875-2.421
		s-1.772-0.802-2.913-0.802c-0.777,0-1.554,0.177-2.33,0.528c-0.777,0.353-1.384,0.832-1.82,1.438v12.889
		C388.425,174.029,389.482,174.212,390.743,174.212z"/>
	<path fill="#FFFFFF" d="M405.162,150.726c0-0.582,0.2-1.073,0.601-1.475c0.4-0.4,0.88-0.601,1.438-0.601
		c0.582,0,1.079,0.2,1.492,0.601c0.413,0.401,0.619,0.893,0.619,1.475c0,0.583-0.206,1.068-0.619,1.457s-0.91,0.582-1.492,0.582
		c-0.559,0-1.038-0.2-1.438-0.601S405.162,151.285,405.162,150.726z M405.963,176.323v-19.807h2.84v19.807H405.963z"/>
	<path fill="#FFFFFF" d="M421.218,176.505c-3.374,0-5.062-1.82-5.062-5.461v-12.234h-2.949v-1.82l2.949-0.546l0.874-5.134h1.93
		v5.207h5.462v2.293h-5.462v12.089c0,1.068,0.255,1.856,0.765,2.366s1.214,0.765,2.112,0.765c1.286,0,2.294-0.23,3.021-0.691
		l0.801,2.257C424.591,176.202,423.112,176.505,421.218,176.505z"/>
	<path fill="#FFFFFF" d="M442.008,172.609l1.274,2.185c-0.704,0.534-1.591,0.965-2.658,1.293c-1.068,0.327-2.258,0.491-3.568,0.491
		c-2.889,0-5.061-0.812-6.518-2.439c-1.456-1.626-2.185-4.235-2.185-7.828c0-1.699,0.225-3.204,0.674-4.515s1.062-2.373,1.839-3.187
		c0.776-0.812,1.675-1.42,2.694-1.82s2.087-0.601,3.204-0.601c2.306,0,4.084,0.698,5.334,2.094s1.875,3.283,1.875,5.661
		c0,0.996-0.072,2.137-0.219,3.423h-12.598c0.121,2.379,0.692,4.097,1.712,5.152c1.019,1.056,2.536,1.584,4.551,1.584
		c0.68,0,1.462-0.121,2.349-0.364C440.655,173.496,441.401,173.119,442.008,172.609z M436.51,158.628
		c-1.044,0-1.948,0.249-2.713,0.746c-0.765,0.498-1.371,1.215-1.82,2.148c-0.449,0.935-0.71,2.106-0.783,3.514h9.94l0.036-1.129
		C441.17,160.388,439.617,158.628,436.51,158.628z"/>
	<path fill="#FFFFFF" d="M448.124,166.711c0-1.748,0.206-3.295,0.619-4.643c0.413-1.347,0.995-2.451,1.748-3.312
		c0.752-0.861,1.644-1.505,2.676-1.931c1.031-0.424,2.154-0.637,3.368-0.637c1.067,0,2.117,0.17,3.149,0.51
		c1.031,0.34,1.862,0.862,2.494,1.565l-1.894,2.075c-1.044-1.092-2.343-1.638-3.896-1.638c-1.675,0-2.986,0.613-3.933,1.838
		c-0.946,1.227-1.42,3.162-1.42,5.808c0,5.195,1.784,7.792,5.353,7.792c1.65,0,2.937-0.521,3.859-1.565l1.747,1.966
		c-0.655,0.753-1.511,1.293-2.566,1.62c-1.056,0.328-2.154,0.492-3.295,0.492c-1.87,0-3.387-0.401-4.552-1.202
		s-2.033-1.917-2.603-3.35C448.41,170.668,448.124,168.872,448.124,166.711z"/>
	<path fill="#FFFFFF" d="M475.068,156.188c1.918,0,3.441,0.577,4.57,1.729c1.128,1.153,1.692,2.725,1.692,4.715v13.69h-2.84V163.07
		c0-0.923-0.188-1.735-0.564-2.439s-0.874-1.202-1.492-1.493c-0.619-0.291-1.27-0.437-1.948-0.437c-0.607,0-1.274,0.121-2.003,0.363
		c-0.728,0.243-1.39,0.662-1.984,1.257s-1.025,1.22-1.292,1.875v14.127h-2.84v-27.635h2.84v10.013h0.146
		c0.679-0.825,1.529-1.45,2.549-1.876C472.92,156.401,473.976,156.188,475.068,156.188z"/>
	<path fill="#FFFFFF" d="M486.063,174.139c0-0.631,0.212-1.171,0.638-1.62c0.424-0.449,0.94-0.674,1.547-0.674
		c0.655,0,1.202,0.219,1.639,0.655c0.437,0.438,0.655,0.983,0.655,1.639c0,0.607-0.225,1.123-0.674,1.548s-0.989,0.637-1.62,0.637
		c-0.582,0-1.092-0.219-1.529-0.655C486.282,175.23,486.063,174.722,486.063,174.139z"/>
	<path fill="#FFFFFF" d="M513.879,170.789c0-0.461-0.194-0.893-0.582-1.293c-0.389-0.4-1.227-0.849-2.513-1.347
		c-1.286-0.497-2.136-0.825-2.549-0.983c-0.413-0.157-0.873-0.395-1.383-0.71s-0.947-0.655-1.312-1.02
		c-0.363-0.364-0.697-0.85-1.001-1.456s-0.455-1.359-0.455-2.258c0-0.582,0.109-1.207,0.328-1.875
		c0.218-0.667,0.606-1.305,1.165-1.911c0.558-0.606,1.322-1.135,2.294-1.584c0.97-0.449,2.147-0.674,3.531-0.674
		c1.505,0,2.846,0.236,4.023,0.71c1.177,0.474,2.105,1.099,2.785,1.875l-2.876,2.913c-0.462-0.51-1.051-0.94-1.766-1.293
		c-0.717-0.352-1.475-0.527-2.276-0.527c-0.874,0-1.554,0.2-2.039,0.601s-0.728,0.904-0.728,1.511c0,0.438,0.188,0.868,0.564,1.293
		c0.376,0.425,1.443,0.959,3.204,1.602c1.759,0.644,3.009,1.232,3.75,1.767c0.74,0.534,1.311,1.152,1.711,1.856
		s0.601,1.554,0.601,2.549c0,1.116-0.321,2.148-0.965,3.095s-1.529,1.693-2.657,2.239c-1.129,0.546-2.494,0.819-4.097,0.819
		c-0.898,0-1.875-0.109-2.931-0.328c-1.056-0.218-2.016-0.569-2.877-1.056c-0.861-0.485-1.547-0.983-2.057-1.493l2.694-3.167
		c0.582,0.631,1.353,1.189,2.312,1.675s1.984,0.728,3.077,0.728c0.995,0,1.747-0.212,2.257-0.637S513.879,171.444,513.879,170.789z"
		/>
	<path fill="#FFFFFF" d="M530.373,176.687c-1.99,0-3.629-0.376-4.915-1.129c-1.287-0.752-2.264-1.875-2.931-3.368
		c-0.668-1.492-1.002-3.465-1.002-5.916c0-2.428,0.358-4.412,1.074-5.953s1.729-2.7,3.041-3.478
		c1.311-0.776,2.949-1.165,4.915-1.165c1.214,0,2.372,0.164,3.478,0.491c1.104,0.328,2.057,0.893,2.857,1.693
		c0.802,0.801,1.42,1.863,1.857,3.186c0.437,1.323,0.655,3.004,0.655,5.043c0,1.578-0.17,3.017-0.51,4.314
		c-0.34,1.299-0.874,2.416-1.603,3.35c-0.728,0.936-1.675,1.657-2.84,2.167S531.927,176.687,530.373,176.687z M526.151,166.056
		c0,2.354,0.346,4.114,1.037,5.279c0.692,1.165,1.814,1.748,3.368,1.748c1.553,0,2.651-0.547,3.295-1.639
		c0.643-1.093,0.965-2.804,0.965-5.134c0-2.379-0.352-4.145-1.056-5.298c-0.704-1.152-1.845-1.729-3.423-1.729
		c-1.456,0-2.519,0.553-3.186,1.657C526.484,162.045,526.151,163.75,526.151,166.056z"/>
	<path fill="#FFFFFF" d="M543.773,148.725h4.478v21.81c0,1.456,0.619,2.185,1.857,2.185c0.437,0,0.801-0.061,1.092-0.183v3.605
		c-0.752,0.314-1.614,0.473-2.585,0.473c-1.529,0-2.719-0.431-3.567-1.292c-0.851-0.861-1.274-2.069-1.274-3.623V148.725z"/>
	<path fill="#FFFFFF" d="M554.659,169.733v-13.69h4.515v13.144c0,1.312,0.297,2.301,0.893,2.968c0.595,0.668,1.45,1.001,2.566,1.001
		c0.583,0,1.184-0.121,1.803-0.364c0.619-0.242,1.135-0.643,1.547-1.201c0.413-0.558,0.668-1.152,0.765-1.784v-13.763h4.479v20.28
		h-3.714l-0.691-1.966h-0.146c-0.534,0.68-1.263,1.244-2.185,1.692c-0.923,0.449-2.027,0.674-3.313,0.674
		C556.855,176.724,554.683,174.393,554.659,169.733z"/>
	<path fill="#FFFFFF" d="M582.803,176.505c-1.796,0-3.191-0.503-4.187-1.511c-0.996-1.007-1.493-2.591-1.493-4.751v-10.741h-2.768
		v-2.804l2.768-0.91l1.493-4.952h2.912v5.207h5.28v3.459h-5.28v10.741c0,0.85,0.219,1.486,0.655,1.911
		c0.438,0.425,1.032,0.637,1.784,0.637c0.534,0,1.062-0.078,1.584-0.236c0.521-0.157,0.952-0.357,1.293-0.601l1.201,3.423
		C586.881,176.129,585.133,176.505,582.803,176.505z"/>
	<path fill="#FFFFFF" d="M590.813,150.545c0-0.801,0.261-1.475,0.782-2.021c0.522-0.547,1.159-0.819,1.912-0.819
		c0.801,0,1.468,0.272,2.002,0.819c0.534,0.546,0.802,1.22,0.802,2.021c0,0.753-0.268,1.384-0.802,1.894s-1.201,0.765-2.002,0.765
		c-0.729,0-1.359-0.261-1.894-0.783C591.079,151.898,590.813,151.273,590.813,150.545z M591.395,176.323v-20.28h4.479v20.28H591.395
		z"/>
	<path fill="#FFFFFF" d="M609.381,176.687c-1.99,0-3.629-0.376-4.915-1.129c-1.287-0.752-2.264-1.875-2.931-3.368
		c-0.668-1.492-1.002-3.465-1.002-5.916c0-2.428,0.358-4.412,1.074-5.953s1.729-2.7,3.041-3.478
		c1.311-0.776,2.949-1.165,4.915-1.165c1.214,0,2.372,0.164,3.478,0.491c1.104,0.328,2.057,0.893,2.857,1.693
		c0.802,0.801,1.42,1.863,1.857,3.186c0.437,1.323,0.655,3.004,0.655,5.043c0,1.578-0.17,3.017-0.51,4.314
		c-0.34,1.299-0.874,2.416-1.603,3.35c-0.728,0.936-1.675,1.657-2.84,2.167S610.935,176.687,609.381,176.687z M605.159,166.056
		c0,2.354,0.346,4.114,1.037,5.279c0.692,1.165,1.814,1.748,3.368,1.748c1.553,0,2.651-0.547,3.295-1.639
		c0.643-1.093,0.965-2.804,0.965-5.134c0-2.379-0.352-4.145-1.056-5.298c-0.704-1.152-1.845-1.729-3.423-1.729
		c-1.456,0-2.519,0.553-3.186,1.657C605.492,162.045,605.159,163.75,605.159,166.056z"/>
	<path fill="#FFFFFF" d="M639.165,162.306v14.018h-4.515v-13.035c0-1.213-0.291-2.16-0.874-2.84c-0.582-0.679-1.408-1.02-2.476-1.02
		c-0.923,0-1.754,0.268-2.494,0.802s-1.28,1.214-1.62,2.038v14.055h-4.479v-20.28h3.459l0.91,2.002h0.146
		c0.534-0.655,1.311-1.231,2.33-1.729c1.02-0.497,2.1-0.746,3.241-0.746c2.039,0,3.604,0.564,4.696,1.693
		C638.583,158.392,639.141,160.072,639.165,162.306z"/>
	<path fill="#FFFFFF" d="M653.474,170.789c0-0.461-0.194-0.893-0.582-1.293c-0.389-0.4-1.227-0.849-2.513-1.347
		c-1.286-0.497-2.136-0.825-2.549-0.983c-0.413-0.157-0.873-0.395-1.383-0.71s-0.947-0.655-1.312-1.02
		c-0.363-0.364-0.697-0.85-1.001-1.456s-0.455-1.359-0.455-2.258c0-0.582,0.109-1.207,0.328-1.875
		c0.218-0.667,0.606-1.305,1.165-1.911c0.558-0.606,1.322-1.135,2.294-1.584c0.97-0.449,2.147-0.674,3.531-0.674
		c1.505,0,2.846,0.236,4.023,0.71c1.177,0.474,2.105,1.099,2.785,1.875l-2.876,2.913c-0.462-0.51-1.051-0.94-1.766-1.293
		c-0.717-0.352-1.475-0.527-2.276-0.527c-0.874,0-1.554,0.2-2.039,0.601s-0.728,0.904-0.728,1.511c0,0.438,0.188,0.868,0.564,1.293
		c0.376,0.425,1.443,0.959,3.204,1.602c1.759,0.644,3.009,1.232,3.75,1.767c0.74,0.534,1.311,1.152,1.711,1.856
		s0.601,1.554,0.601,2.549c0,1.116-0.321,2.148-0.965,3.095s-1.529,1.693-2.657,2.239c-1.129,0.546-2.494,0.819-4.097,0.819
		c-0.898,0-1.875-0.109-2.931-0.328c-1.056-0.218-2.016-0.569-2.877-1.056c-0.861-0.485-1.547-0.983-2.057-1.493l2.694-3.167
		c0.582,0.631,1.353,1.189,2.312,1.675s1.984,0.728,3.077,0.728c0.995,0,1.747-0.212,2.257-0.637S653.474,171.444,653.474,170.789z"
		/>
	<path fill="#FFFFFF" d="M661.302,173.519c0-0.874,0.297-1.614,0.892-2.221s1.316-0.91,2.167-0.91c0.412,0,0.861,0.104,1.347,0.31
		s0.898,0.57,1.238,1.092c0.34,0.522,0.51,1.099,0.51,1.729c0,0.825-0.304,1.535-0.91,2.13c-0.607,0.596-1.335,0.893-2.185,0.893
		c-0.851,0-1.572-0.297-2.167-0.893C661.599,175.055,661.302,174.345,661.302,173.519z"/>
</g>
<g>
</g>
<g>
</g>
<g>
</g>
<g>
</g>
<g>
</g>
<g>
</g>
<g>
</g>
<g>
</g>
<g>
</g>
<g>
</g>
<g>
</g>
<g>
</g>
<g>
</g>
<g>
</g>
<g>
</g>
</svg>
